<svg width="276" height="44" viewBox="0 0 276 44" fill="none" xmlns="http://www.w3.org/2000/svg">
<circle cx="80" cy="22" r="22" fill="white"/>
<path d="M94.8824 13.5001C93.8237 13.9959 92.6824 14.3217 91.4999 14.4776C92.7099 13.7267 93.6449 12.5367 94.0849 11.1059C92.9437 11.8142 91.6787 12.3101 90.3449 12.5934C89.2587 11.3751 87.7324 10.6667 85.9999 10.6667C82.7687 10.6667 80.1287 13.3867 80.1287 16.7442C80.1287 17.2259 80.1837 17.6934 80.2799 18.1326C75.3849 17.8776 71.0262 15.4551 68.1249 11.7859C67.6162 12.6784 67.3274 13.7267 67.3274 14.8317C67.3274 16.9426 68.3587 18.8126 69.9537 19.8751C68.9774 19.8751 68.0699 19.5917 67.2724 19.1667V19.2092C67.2724 22.1559 69.3074 24.6209 72.0024 25.1734C71.1372 25.4174 70.2288 25.4513 69.3487 25.2726C69.7221 26.4803 70.4535 27.537 71.4401 28.2942C72.4266 29.0515 73.6187 29.4711 74.8487 29.4942C72.7637 31.1949 70.1792 32.1141 67.5199 32.1009C67.0524 32.1009 66.5849 32.0726 66.1174 32.0159C68.7299 33.7442 71.8374 34.7501 75.1649 34.7501C85.9999 34.7501 91.9537 25.4851 91.9537 17.4526C91.9537 17.1834 91.9537 16.9284 91.9399 16.6592C93.0949 15.8092 94.0849 14.7326 94.8824 13.5001Z" fill="#1DA1F3"/>
<circle cx="22" cy="22" r="22" fill="white"/>
<path d="M16.0499 7.83325H27.9499C32.4833 7.83325 36.1666 11.5166 36.1666 16.0499V27.9499C36.1666 30.1291 35.3009 32.2191 33.76 33.76C32.2191 35.3009 30.1291 36.1666 27.9499 36.1666H16.0499C11.5166 36.1666 7.83325 32.4833 7.83325 27.9499V16.0499C7.83325 13.8707 8.69893 11.7808 10.2399 10.2399C11.7808 8.69893 13.8707 7.83325 16.0499 7.83325ZM15.7666 10.6666C14.414 10.6666 13.1168 11.2039 12.1603 12.1603C11.2039 13.1168 10.6666 14.414 10.6666 15.7666V28.2333C10.6666 31.0524 12.9474 33.3333 15.7666 33.3333H28.2333C29.5859 33.3333 30.8831 32.7959 31.8395 31.8395C32.7959 30.8831 33.3333 29.5859 33.3333 28.2333V15.7666C33.3333 12.9474 31.0524 10.6666 28.2333 10.6666H15.7666ZM29.4374 12.7916C29.9071 12.7916 30.3575 12.9782 30.6896 13.3103C31.0217 13.6423 31.2083 14.0928 31.2083 14.5624C31.2083 15.0321 31.0217 15.4825 30.6896 15.8146C30.3575 16.1467 29.9071 16.3333 29.4374 16.3333C28.9678 16.3333 28.5173 16.1467 28.1852 15.8146C27.8532 15.4825 27.6666 15.0321 27.6666 14.5624C27.6666 14.0928 27.8532 13.6423 28.1852 13.3103C28.5173 12.9782 28.9678 12.7916 29.4374 12.7916ZM21.9999 14.9166C23.8785 14.9166 25.6802 15.6629 27.0086 16.9912C28.337 18.3196 29.0833 20.1213 29.0833 21.9999C29.0833 23.8785 28.337 25.6802 27.0086 27.0086C25.6802 28.337 23.8785 29.0833 21.9999 29.0833C20.1213 29.0833 18.3196 28.337 16.9912 27.0086C15.6629 25.6802 14.9166 23.8785 14.9166 21.9999C14.9166 20.1213 15.6629 18.3196 16.9912 16.9912C18.3196 15.6629 20.1213 14.9166 21.9999 14.9166ZM21.9999 17.7499C20.8727 17.7499 19.7917 18.1977 18.9947 18.9947C18.1977 19.7917 17.7499 20.8727 17.7499 21.9999C17.7499 23.1271 18.1977 24.2081 18.9947 25.0051C19.7917 25.8022 20.8727 26.2499 21.9999 26.2499C23.1271 26.2499 24.2081 25.8022 25.0051 25.0051C25.8022 24.2081 26.2499 23.1271 26.2499 21.9999C26.2499 20.8727 25.8022 19.7917 25.0051 18.9947C24.2081 18.1977 23.1271 17.7499 21.9999 17.7499Z" fill="url(#paint0_angular_176_1088)"/>
<circle cx="138" cy="22" r="22" fill="white"/>
<path d="M138 6C147.373 6 155 12.188 155 19.7955C155 22.8406 153.821 25.5819 151.356 28.2828C147.79 32.3883 139.815 37.3884 138 38.1534C136.236 38.8971 136.44 37.7348 136.521 37.2758L136.527 37.2375L136.77 35.7819C136.827 35.3484 136.886 34.6747 136.714 34.2455C136.523 33.7716 135.771 33.5251 135.218 33.4061C127.048 32.3288 121 26.6146 121 19.7955C121 12.188 128.629 6 138 6ZM131.672 22.3327H128.431V16.4508C128.431 16.3632 128.396 16.2792 128.335 16.2171C128.273 16.155 128.189 16.1198 128.102 16.1193H126.907C126.864 16.1193 126.821 16.1278 126.781 16.1445C126.74 16.1611 126.704 16.1856 126.673 16.2163C126.642 16.2471 126.618 16.2837 126.601 16.3239C126.585 16.3641 126.576 16.4072 126.576 16.4508V23.8585C126.576 23.9456 126.612 24.0285 126.669 24.0859V24.088L126.674 24.0922L126.678 24.0965C126.74 24.1558 126.822 24.1886 126.907 24.1879H131.672C131.854 24.1879 132.001 24.0391 132.001 23.8564V22.6664C132.001 22.6228 131.993 22.5797 131.977 22.5394C131.96 22.499 131.936 22.4623 131.906 22.4313C131.875 22.4004 131.839 22.3757 131.798 22.3588C131.758 22.3419 131.715 22.333 131.672 22.3327ZM133.353 16.1193C133.265 16.1193 133.18 16.1542 133.118 16.2163C133.056 16.2785 133.021 16.3628 133.021 16.4508V23.8585C133.021 24.0413 133.17 24.1879 133.353 24.1879H134.547C134.73 24.1879 134.876 24.0391 134.876 23.8585V16.4508C134.876 16.3632 134.842 16.2792 134.78 16.2171C134.718 16.155 134.634 16.1198 134.547 16.1193H133.353ZM141.561 16.1193C141.474 16.1193 141.389 16.1542 141.327 16.2163C141.265 16.2785 141.23 16.3628 141.23 16.4508V20.8495L137.836 16.268C137.828 16.2568 137.819 16.2462 137.809 16.2361C137.802 16.2287 137.795 16.2195 137.788 16.2128L137.781 16.2064C137.774 16.1994 137.766 16.193 137.758 16.1873L137.745 16.1787L137.739 16.1745C137.735 16.172 137.732 16.1699 137.728 16.1681L137.711 16.1575H137.707L137.7 16.1532L137.679 16.1448L137.671 16.1405C137.664 16.138 137.657 16.1359 137.649 16.1341H137.645L137.639 16.132L137.62 16.1277H137.607L137.6 16.1256H137.592L137.588 16.1235H136.368C136.28 16.1235 136.196 16.1581 136.134 16.2198C136.072 16.2816 136.037 16.3653 136.037 16.4529V23.8606C136.037 24.0434 136.185 24.19 136.368 24.19H137.558C137.743 24.19 137.892 24.0412 137.892 23.8606V19.4619L141.292 24.0519C141.314 24.0835 141.342 24.1108 141.375 24.1326L141.377 24.1348L141.398 24.1475L141.406 24.1517C141.412 24.155 141.418 24.1578 141.423 24.1602L141.438 24.1666L141.449 24.1709C141.456 24.1732 141.463 24.1753 141.47 24.1772H141.476C141.504 24.1852 141.533 24.1895 141.561 24.19H142.752C142.936 24.19 143.085 24.0412 143.085 23.8606V16.4508C143.085 16.3628 143.05 16.2785 142.988 16.2163C142.926 16.1542 142.842 16.1193 142.754 16.1193H141.561ZM149.668 17.6429V16.4529C149.669 16.4093 149.66 16.3662 149.644 16.3259C149.628 16.2855 149.603 16.2488 149.573 16.2178C149.542 16.1869 149.506 16.1622 149.466 16.1453C149.426 16.1284 149.383 16.1195 149.339 16.1193H144.575C144.489 16.1194 144.407 16.1529 144.345 16.2128H144.343L144.341 16.217L144.337 16.2234C144.277 16.2843 144.244 16.3657 144.243 16.4508V23.8585C144.243 23.9456 144.279 24.0285 144.337 24.0859L144.341 24.0922L144.345 24.0965C144.407 24.1556 144.489 24.1883 144.575 24.1879H149.339C149.522 24.1879 149.668 24.0391 149.668 23.8564V22.6664C149.669 22.6228 149.66 22.5797 149.644 22.5394C149.628 22.499 149.603 22.4623 149.573 22.4313C149.542 22.4004 149.506 22.3757 149.466 22.3588C149.426 22.3419 149.383 22.333 149.339 22.3327H146.096V21.0811H149.337C149.52 21.0811 149.666 20.9324 149.666 20.7496V19.5596C149.667 19.5161 149.658 19.4729 149.642 19.4326C149.625 19.3923 149.601 19.3556 149.571 19.3246C149.54 19.2936 149.504 19.269 149.464 19.252C149.423 19.2351 149.38 19.2263 149.337 19.226H146.096V17.9744H149.337C149.52 17.9744 149.666 17.8256 149.666 17.6429H149.668Z" fill="#06C655"/>
<circle cx="254" cy="22" r="22" fill="white"/>
<path d="M250.75 26.2499L257.886 21.9999L250.75 17.7499V26.2499ZM266.645 15.1574C266.824 15.8233 266.948 16.7158 267.03 17.8491C267.126 18.9824 267.168 19.9599 267.168 20.8099L267.25 21.9999C267.25 25.1024 267.03 27.3833 266.645 28.8424C266.301 30.1174 265.504 30.9391 264.266 31.2933C263.62 31.4774 262.438 31.6049 260.623 31.6899C258.835 31.7891 257.199 31.8316 255.686 31.8316L253.5 31.9166C247.739 31.9166 244.15 31.6899 242.734 31.2933C241.496 30.9391 240.699 30.1174 240.355 28.8424C240.176 28.1766 240.053 27.2841 239.97 26.1508C239.874 25.0174 239.832 24.0399 239.832 23.1899L239.75 21.9999C239.75 18.8974 239.97 16.6166 240.355 15.1574C240.699 13.8824 241.496 13.0608 242.734 12.7066C243.38 12.5224 244.563 12.3949 246.378 12.3099C248.165 12.2108 249.801 12.1683 251.314 12.1683L253.5 12.0833C259.261 12.0833 262.85 12.3099 264.266 12.7066C265.504 13.0608 266.301 13.8824 266.645 15.1574Z" fill="#FF0000"/>
<circle cx="196" cy="22" r="22" fill="white"/>
<path d="M196.5 7.88989C188.938 7.88989 182.75 14.2507 182.75 22.0849C182.75 29.1682 187.782 35.0474 194.355 36.1099V26.1932H190.863V22.0849H194.355V18.9541C194.355 15.3982 196.404 13.4432 199.553 13.4432C201.051 13.4432 202.619 13.7124 202.619 13.7124V17.2116H200.886C199.181 17.2116 198.645 18.3024 198.645 19.4216V22.0849H202.468L201.849 26.1932H198.645V36.1099C201.885 35.5827 204.836 33.8794 206.964 31.3075C209.092 28.7356 210.257 25.4646 210.25 22.0849C210.25 14.2507 204.062 7.88989 196.5 7.88989Z" fill="#3B5998"/>
<defs>
<radialGradient id="paint0_angular_176_1088" cx="0" cy="0" r="1" gradientUnits="userSpaceOnUse" gradientTransform="translate(21.9999 21.9999) rotate(90) scale(16.6731)">
<stop offset="0.100294" stop-color="#FEDA75"/>
<stop offset="0.229167" stop-color="#FA7E1E"/>
<stop offset="0.399659" stop-color="#4F5BD5"/>
<stop offset="0.66984" stop-color="#962FBF"/>
<stop offset="0.841037" stop-color="#D62976"/>
</radialGradient>
</defs>
</svg>
